# Blender v2.79 (sub 0) OBJ File: ''
# www.blender.org
o Cylinder
v 0.000000 -1.000000 -1.000000
v 0.000000 1.000000 -1.000000
v 0.866025 -1.000000 0.500000
v 0.866025 1.000000 0.500000
v -0.866025 -1.000000 0.500000
v -0.866025 1.000000 0.500000
vn 0.8660 0.0000 -0.5000
vn -0.0000 0.0000 1.0000
vn 0.0000 1.0000 -0.0000
vn -0.8660 0.0000 -0.5000
vn 0.0000 -1.0000 0.0000
s off
f 2//1 3//1 1//1
f 4//2 5//2 3//2
f 4//3 2//3 6//3
f 6//4 1//4 5//4
f 1//5 3//5 5//5
f 2//1 4//1 3//1
f 4//2 6//2 5//2
f 6//4 2//4 1//4
